<?xml version="1.0" encoding="utf-8"?>
<!-- Generator: Adobe Illustrator 21.1.0, SVG Export Plug-In . SVG Version: 6.00 Build 0)  -->
<svg version="1.1" id="图层_1" xmlns="http://www.w3.org/2000/svg" xmlns:xlink="http://www.w3.org/1999/xlink" x="0px" y="0px"
	 viewBox="0 0 54 54" style="enable-background:new 0 0 54 54;" xml:space="preserve">
<style type="text/css">
	.st0{fill:#999999;}
</style>
<path class="st0" d="M27,46.9c-0.8,0-0.7,1.6-0.8,2.2c-0.1,1.5-1.3,2.3-2.7,2.5c-0.7,0.1-1.5,0-2.3-0.2c-1.2-0.3-2.4-1-3.2-2.1
	c-2.2-2.9-4.1-5.3-5.1-9c-0.3-1.4-0.5-3-0.5-4.7c0-1.2,0.1-2.4,0.4-3.6l-0.7,0.2c-2.3,0.6-5.5,1.3-6.7-1.4c-1.1-2.7,1.5-6.1,3.4-7.8
	c2.5-2.4,5.7-4.3,8.9-5.4c-0.8-1.4-1.2-3.1-1.2-4.8c0-5.7,4.6-10.3,10.3-10.3c5.7,0,10.3,4.6,10.3,10.3c0,1.7-0.4,3.3-1.1,4.7
	c3.3,1.1,6.8,3.1,9.3,5.6c1.4,1.3,2.4,2.7,3,3.9c0.7,1.4,0.8,2.8,0.4,3.9c-0.1,0.3-0.4,0.7-0.6,1c-1.6,1.6-4,1-6.1,0.5L41.2,32
	c0.2,1.1,0.4,2.4,0.4,3.6c0,1.7-0.2,3.4-0.5,4.7c-0.9,3.7-2.8,6.1-5.1,9c-0.7,1.1-1.9,1.8-3.2,2.1c-0.8,0.2-1.6,0.3-2.3,0.2
	c-1.4-0.2-2.7-1-2.7-2.5C27.7,48.5,27.8,46.9,27,46.9z M32.3,29.6c1,0,1.9,0.8,1.9,1.9c0,1-0.8,1.9-1.9,1.9c-1,0-1.9-0.8-1.9-1.9
	C30.4,30.4,31.3,29.6,32.3,29.6z M20.7,29.6c1,0,1.9,0.8,1.9,1.9c0,1-0.8,1.9-1.9,1.9c-1,0-1.9-0.8-1.9-1.9
	C18.8,30.4,19.7,29.6,20.7,29.6z M26.9,20.2c4.1-0.1,7.5-3.3,7.5-7.6c0-4.2-3.4-7.5-7.5-7.5c-4.2,0-7.5,3.4-7.5,7.5
	C19.2,16.9,22.7,20.2,26.9,20.2z M34.3,19.7c-2,2.1-4.5,3.2-7.3,3.3c-2.9,0-5.6-1.1-7.6-3.2c-0.6,0.2-1.2,0.4-1.8,0.7
	c-2.9,1.2-5.2,2.8-6.9,4.4c-1.1,1.1-2,2.2-2.4,3.1c-0.4,0.7-0.5,1.3-0.3,1.7c0.5,0.7,2.8,0,3.5-0.1c1.2-0.3,2.2-0.5,3-0.3
	c1.1,0.3,1.7,1.1,1.2,2.6c-0.3,1.1-0.5,2.5-0.5,3.8c0,1.4,0.2,2.9,0.5,4.1c0.1,0.3,0.2,0.6,0.2,0.8c7.5,1.7,14.9,1.8,22.2,0.1
	c0.1-0.3,0.2-0.6,0.3-1c0.6-2.3,0.7-5.5,0-7.8c-0.4-1.5,0.1-2.3,1.2-2.6c0.8-0.2,1.8,0,3,0.3c0.7,0.2,3.1,0.9,3.5,0.1
	c0.1-0.3,0-0.9-0.3-1.7c-0.5-0.9-1.3-2-2.4-3.1c-1.7-1.6-4-3.2-6.9-4.4C35.7,20.2,35,19.9,34.3,19.7z M37.1,42.9l-7.3,2.4
	c0.7,0.9,0.7,2.5,0.7,3.6c1.1,0.2,2.5-0.1,3.2-1.1C34.9,46.2,36.1,44.7,37.1,42.9z M24.2,45.3L17,43.1c0.9,1.7,2.1,3.2,3.3,4.7
	c0.3,0.5,1,0.8,1.6,1c0.6,0.2,1,0.2,1.6,0.1C23.6,47.7,23.6,46.2,24.2,45.3z"/>
</svg>
