<?xml version="1.0" encoding="utf-8"?>
<!-- Generator: Adobe Illustrator 21.1.0, SVG Export Plug-In . SVG Version: 6.00 Build 0)  -->
<svg version="1.1" id="图层_1" xmlns="http://www.w3.org/2000/svg" xmlns:xlink="http://www.w3.org/1999/xlink" x="0px" y="0px"
	 viewBox="0 0 16 16" style="enable-background:new 0 0 16 16;" xml:space="preserve">
<style type="text/css">
	.st0{fill:#FF6061;}
</style>
<path class="st0" d="M8,13.9c-0.2,0-0.2,0.5-0.2,0.7c0,0.4-0.4,0.7-0.8,0.7c-0.2,0-0.4,0-0.7-0.1c-0.4-0.1-0.7-0.3-0.9-0.6
	c-0.7-0.9-1.2-1.6-1.5-2.7c-0.1-0.4-0.2-0.9-0.2-1.4c0-0.4,0-0.7,0.1-1.1L3.6,9.5C2.9,9.7,2,9.9,1.6,9.1C1.3,8.3,2,7.3,2.6,6.8
	c0.7-0.7,1.7-1.3,2.6-1.6C5,4.8,4.9,4.3,4.9,3.7c0-1.7,1.4-3,3.1-3s3.1,1.4,3.1,3c0,0.5-0.1,1-0.3,1.4c1,0.3,2,0.9,2.8,1.7
	C14,7.2,14.3,7.6,14.5,8s0.3,0.8,0.1,1.2c0,0.1-0.1,0.2-0.2,0.3c-0.5,0.5-1.2,0.3-1.8,0.1l-0.2-0.1c0.1,0.3,0.1,0.7,0.1,1.1
	c0,0.5-0.1,1-0.2,1.4c-0.3,1.1-0.8,1.8-1.5,2.7c-0.2,0.3-0.6,0.5-0.9,0.6c-0.2,0.1-0.5,0.1-0.7,0.1c-0.4,0-0.8-0.3-0.8-0.7
	C8.2,14.4,8.2,13.9,8,13.9z M9.6,8.8c0.3,0,0.6,0.3,0.6,0.6S9.9,10,9.6,10C9.3,9.9,9,9.6,9,9.3S9.3,8.8,9.6,8.8z M6.1,8.8
	c0.3,0,0.6,0.3,0.6,0.6S6.4,10,6.1,10c-0.3,0-0.6-0.3-0.6-0.6C5.6,9,5.8,8.8,6.1,8.8z M8,6c1.2,0,2.2-1,2.2-2.2S9.2,1.6,8,1.6
	s-2.2,1-2.2,2.2C5.7,5,6.7,6,8,6z M10.2,5.8c-0.6,0.6-1.4,1-2.2,1c-0.9,0-1.6-0.3-2.2-0.9C5.6,5.9,5.4,6,5.2,6.1
	c-0.8,0.4-1.5,0.8-2,1.3C2.8,7.7,2.6,8,2.4,8.3C2.3,8.5,2.3,8.7,2.3,8.8c0.1,0.2,0.8,0,1,0c0.4-0.1,0.7-0.2,1-0.1
	C4.6,8.8,4.8,9,4.6,9.4c-0.1,0.3-0.1,0.7-0.1,1.1c0,0.4,0,0.9,0.1,1.2c0,0.1,0,0.2,0.1,0.2c2.2,0.5,4.4,0.5,6.6,0
	c0-0.1,0.1-0.2,0.1-0.3c0.2-0.7,0.2-1.6,0-2.3c-0.1-0.4,0-0.7,0.4-0.8c0.2-0.1,0.5,0,0.9,0.1c0.2,0.1,0.9,0.3,1,0
	c0-0.1,0-0.3-0.1-0.5c-0.1-0.3-0.4-0.6-0.7-0.9c-0.5-0.5-1.2-1-2-1.3C10.6,6,10.4,5.9,10.2,5.8z M11,12.7l-2.2,0.7
	C9,13.7,9,14.1,9,14.5c0.3,0.1,0.8,0,1-0.3C10.3,13.7,10.7,13.2,11,12.7z M7.2,13.4L5,12.8c0.3,0.5,0.6,0.9,1,1.4
	c0.1,0.1,0.3,0.3,0.5,0.3s0.3,0.1,0.5,0C7,14.1,7,13.7,7.2,13.4z"/>
</svg>
