<?xml version="1.0" standalone="no"?><!DOCTYPE svg PUBLIC "-//W3C//DTD SVG 1.1//EN" "http://www.w3.org/Graphics/SVG/1.1/DTD/svg11.dtd"><svg class="icon" width="54px" height="54.00px" viewBox="0 0 1024 1024" version="1.1" xmlns="http://www.w3.org/2000/svg"><path fill="#999999" d="M644.032 278.272 644.032 177.6c15.104-11.712 24.384-26.56 24.384-45.056 0-53.632-76.544-77.632-152.384-77.632-75.904 0-152.384 24-152.384 77.632 0 21.44 12.352 38.144 32 50.432l0 90.688c-208.256 59.008-362.944 272.064-362.944 525.12l0 37.696L992 836.48l0-37.696C992 551.872 844.672 343.04 644.032 278.272zM516.032 111.424c51.328 0 85.632 12.032 98.368 21.12C609.152 136.256 599.936 140.48 587.584 144.256 570.048 149.504 545.984 153.6 516.032 153.6c-30.08 0-54.08-4.096-71.552-9.344C432.064 140.48 422.848 136.32 417.536 132.544 430.4 123.52 464.704 111.424 516.032 111.424zM573.568 222.912l0 56c-58.944-13.184-65.28-13.312-123.136 0L450.432 222.912 573.568 222.912zM81.28 782.912c14.656-206.464 152.32-411.776 344.64-448-16.448 4.032 75.008-15.488 172.224 0 175.488 42.624 314.176 182.784 344.64 448L81.28 782.912zM634.624 385.408c-9.536-5.12-19.584-7.68-29.632-7.68-31.68 0-60.992 27.136-68.096 63.104-6.464 32.256 7.04 62.464 34.304 76.992 73.152 38.976 116.224 82.752 139.776 141.888 10.304 25.792 30.464 41.216 53.888 41.216 22.72 0 45.952-14.784 59.008-37.696 12.928-22.528 14.656-49.536 4.864-74.24C795.072 504.704 729.792 436.16 634.624 385.408zM781.824 632.512c-4.48 7.872-11.968 11.968-17.024 11.968-1.728 0-5.056 0-8.192-7.872C719.744 544 649.536 497.216 592.576 466.816 586.304 463.424 584.448 459.84 585.728 453.312c1.792-9.216 9.984-19.008 19.264-19.008 2.624 0 5.44 0.768 8.256 2.24 84.032 44.864 141.184 103.936 169.728 175.616C785.856 619.456 785.472 626.048 781.824 632.512zM32 950.912l959.616 0 0.384-56-960 0L32 950.912z" /></svg>