<?xml version="1.0" standalone="no"?><!DOCTYPE svg PUBLIC "-//W3C//DTD SVG 1.1//EN" "http://www.w3.org/Graphics/SVG/1.1/DTD/svg11.dtd"><svg class="icon" width="54px" height="54.00px" viewBox="0 0 1024 1024" version="1.1" xmlns="http://www.w3.org/2000/svg"><path fill="#999999" d="M776.027 239.771zM249.385 239.771zM756.51 962.199c-49.283 0-89.377-40.096-89.377-89.379l0.004-0.129 23.977-370.594c-70.561-27.046-117.867-95.648-117.867-171.188V106.271h33.881v224.64c0 65.37 43.697 124.175 106.264 143.004l12.574 3.789-0.563 13.903c-0.129 3.216-0.229 5.756-0.229 8.34l-0.006 0.13-24.186 373.771c0.031 14.354 5.814 27.957 16.291 38.309 10.549 10.423 24.48 16.162 39.236 16.162 30.58 0 55.465-24.86 55.496-55.436L787.89 500.929a212.846 212.846 0 0 0-0.188-7.202l-0.584-16.037 12.523-3.772c62.564-18.83 106.264-77.635 106.264-143.005v-224.64h33.881V330.91c0 75.568-47.314 144.171-117.895 171.188l23.967 369.692v0.063c0.014 24.248-9.285 46.979-26.18 64.008-16.85 16.985-39.282 26.338-63.168 26.338z m-483.652-0.003c-49.274 0-89.362-40.095-89.362-89.378l0.004-0.129 23.793-368.144c-36.269-16.438-67.025-45.092-89.016-82.947-22.286-38.365-34.065-83.639-34.065-130.927 0-126.2 85.825-228.871 191.316-228.871 51.091 0 99.156 23.881 135.34 67.245 36.099 43.258 55.978 100.658 55.978 161.625 0 47.992-12.427 94.066-35.935 133.241-23.182 38.632-55.103 67.207-92.383 82.721l23.664 365.155v0.063c0.014 24.249-9.28 46.979-26.17 64.008-16.846 16.986-39.278 26.338-63.164 26.338z m-55.512-88.35c0.032 14.355 5.813 27.959 16.285 38.31 10.544 10.423 24.476 16.162 39.229 16.162 30.573 0 55.451-24.86 55.484-55.436L304.08 495.295l-0.115-12.431 11.776-3.87c69.021-22.657 117.226-100.099 117.223-188.323 0-107.519-70.625-194.992-157.438-194.992-86.811 0-157.437 87.474-157.437 194.991 0 85.548 46.276 162.381 112.537 186.843l11.306 4.188-0.427 18.295-24.159 373.85zM829.725 319.43H798.82V106.271h30.904V319.43z m-115.524 0h-30.9V106.271h30.9V319.43z" /></svg>