<?xml version="1.0" standalone="no"?><!DOCTYPE svg PUBLIC "-//W3C//DTD SVG 1.1//EN" "http://www.w3.org/Graphics/SVG/1.1/DTD/svg11.dtd"><svg class="icon" width="54px" height="54.00px" viewBox="0 0 1024 1024" version="1.1" xmlns="http://www.w3.org/2000/svg"><path fill="#999999" d="M1014.177278 313.003497c-42.365408-145.14312-167.925727-135.351719-167.925727-135.351719-3.2638-78.267212-47.229111-114.169015-47.229111-114.169015-123.960416-125.560318-238.065436-26.110403-238.065436-26.110403C420.677587 158.068976 523.967268 287.981028 523.967268 287.981028L291.341499 520.606797C181.524218 437.987851 78.298533 521.69473 78.298533 521.69473c-91.322413 70.075713-73.339513 145.079124-73.339513 145.079124 4.927699 163.062024 172.853425 179.381026 172.853425 179.381026 22.270638 135.863688 107.06545 180.404963 187.508529 177.717128 52.156809 2.751832 141.687332-44.285291 163.062024-111.417184 37.43771-100.537849-22.846602-178.805061-22.846602-178.805061l236.465534-233.137737c38.589639 44.541275 120.63262 35.901804 120.63262 35.901804C1067.997985 493.984425 1014.177278 313.003497 1014.177278 313.003497zM861.866596 484.640997c0 0-63.868093 10.431362-105.27356-41.597455-28.60625-14.975084-55.612598 23.102587-55.612598 23.102587l-241.329236 240.177306c0 0-28.28627 20.606739-10.879334 41.341471 0 0 104.377614 102.201748-19.582802 202.163632 0 0-98.937947 63.036144-177.205159-38.07767 0 0-28.28627-53.244743-19.582802-84.794812 0 0 8.703468-45.629209-34.749874-32.574007 0 0-140.215422 12.991205-143.479222-133.751817 0 0-15.231068-95.610151 110.841219-122.744491 0 0 76.091345-9.791401 110.841219 42.365408 0 0 13.183193 14.783096 31.55007-6.975573l264.111842-259.312136c0 0 26.110403-21.182704 0-50.556907 0 0-79.93111-99.449916 19.582802-180.980928 0 0 75.003411-68.475811 167.925727 9.791401 0 0 34.237905 22.782606 38.589639 101.113814 0 0-9.727405 44.733263 32.638003 36.989737 0 0 120.696616-16.319002 140.215422 110.841219C970.595944 341.161775 992.290617 447.65126 861.866596 484.640997z" /></svg>