<?xml version="1.0" encoding="utf-8"?>
<!-- Generator: Adobe Illustrator 21.1.0, SVG Export Plug-In . SVG Version: 6.00 Build 0)  -->
<svg version="1.1" id="图层_1" xmlns="http://www.w3.org/2000/svg" xmlns:xlink="http://www.w3.org/1999/xlink" x="0px" y="0px"
	 viewBox="0 0 54 54" style="enable-background:new 0 0 54 54;" xml:space="preserve">
<style type="text/css">
	.st0{fill:#CCCCCC;}
</style>
<path class="st0" d="M19.1,15.1l0.8-0.7l1.1,0.1l-0.4-1l0.4-1l-1.1,0.1L19.1,12l-0.3,1l-0.9,0.6l0.9,0.6L19.1,15.1z M34.5,14
	l0.8,0.8l0.3-1l1-0.5l-0.9-0.7l-0.2-1.1l-0.9,0.6l-1.1-0.2l0.4,1l-0.5,0.9C33.4,13.9,34.5,14,34.5,14z M25.8,12.7l1-0.3l1,0.5v-1.1
	l0.8-0.7l-1-0.4l-0.5-1l-0.6,0.8l-1.1,0.1l0.7,0.9C26,11.7,25.8,12.7,25.8,12.7z M14.4,19.1l0.7,0.8l0.4-1l1-0.5l-0.9-0.6l-0.1-1.1
	l-0.9,0.6l-1.1-0.2l0.3,1l-0.5,1C13.3,19.1,14.4,19.1,14.4,19.1z M35.2,39.8l-0.8,0.7l-1.1-0.1l0.4,1l-0.4,1l1.1-0.1l0.8,0.7l0.3-1
	l0.9-0.6l-0.9-0.6C35.4,40.8,35.2,39.8,35.2,39.8z M28.5,41.7l-1,0.3l-1-0.5v1.1l-0.8,0.7l1,0.4l0.5,1l0.6-0.8l1.1-0.1l-0.6-0.9
	L28.5,41.7z M20.4,40.5l-0.8-0.8l-0.3,1l-1,0.5l0.9,0.7l0.2,1.1l0.9-0.6l1.1,0.2l-0.3-1l0.5-0.9C21.4,40.5,20.4,40.5,20.4,40.5z"/>
<path class="st0" d="M27,4.2C14.4,4.2,4.1,14.4,4.1,27S14.4,49.9,27,49.9S49.9,39.7,49.9,27S39.6,4.2,27,4.2z M27,48.4
	C15.2,48.4,5.6,38.8,5.6,27S15.2,5.7,27,5.7s21.4,9.6,21.4,21.4C48.4,38.8,38.8,48.4,27,48.4z"/>
<path class="st0" d="M27,7.9C16.4,7.9,7.8,16.5,7.8,27S16.4,46.2,27,46.2S46.2,37.6,46.2,27C46.2,16.5,37.6,7.9,27,7.9z M27,45.4
	C16.9,45.4,8.7,37.1,8.7,27S16.9,8.7,27,8.7S45.3,16.9,45.3,27c0,3.6-1.1,7.2-3.1,10.2l-0.4-1l0.5-1l-1.1,0.1l-0.8-0.7l-0.3,1
	l-0.9,0.6l0.9,0.6l0.2,1l0.9-0.7l1.1,0.1C38.9,42.1,33.3,45.4,27,45.4z"/>
<path class="st0" d="M34.5,17.8c-2.1-1.7-4.8-2.7-7.5-2.7c-5.7,0-10.6,4.1-11.7,9.7l0.7,0.1c1-5.2,5.6-9,10.9-9
	c2.6,0,5.1,0.9,7.1,2.5C34.1,18.4,34.5,17.8,34.5,17.8z M27,38.2c-2.6,0-5.1-0.9-7.1-2.5l-0.5,0.6c2.1,1.7,4.8,2.7,7.5,2.7
	c5.7,0,10.6-4.1,11.7-9.7l-0.7-0.1C36.9,34.4,32.3,38.2,27,38.2z M19.2,26.7c0.2-0.1,0.3,0,0.4,0.2c0,0.2,0,0.3-0.2,0.3l-1.2,0.4
	l0.9,2.3c0.3-0.4,0.5-0.8,0.7-1.2c0-0.1,0.1-0.1,0.1-0.1c0.2,0,0.3,0,0.3,0.1s0,0.3,0,0.4c-0.2,0.5-0.5,1-0.8,1.5c0,0,0,0,0,0.1
	l1.2,3.2c0.2,0.5,0.1,0.9-0.4,1c-0.3,0.1-0.7,0.2-1.1,0.2C19,35,18.9,35,18.9,35c-0.1-0.2,0-0.4,0.1-0.4c0,0,0,0,0.1,0
	c0.3,0,0.6,0,0.8-0.1c0.2-0.1,0.2-0.2,0.2-0.4L19,31.3c-0.3,0.3-0.5,0.6-0.8,0.9c-0.1,0-0.1,0.1-0.2,0.1s-0.2,0-0.3-0.1
	c-0.1-0.2,0-0.3,0.1-0.4c0.4-0.5,0.8-0.9,1-1.2l-1-2.7l-1.1,0.4c-0.2,0-0.3,0-0.3-0.2c-0.1-0.2,0-0.3,0.1-0.4l1.1-0.4l-0.7-1.7
	c-0.1-0.2,0-0.3,0.1-0.3c0.2-0.1,0.3,0,0.4,0.1l0.7,1.7C18,27.2,19.2,26.7,19.2,26.7z M21.9,30.5l0.9,2.3c0.1,0.2,0.2,0.3,0.5,0.2
	l4.6-1.8c0.2-0.1,0.3,0,0.3,0.2c0.1,0.2,0,0.3-0.2,0.3l-4.8,1.8c-0.4,0.2-0.7,0-0.9-0.4l-3-7.8c-0.2-0.4,0-0.7,0.4-0.9l4.7-1.8
	c0.2-0.1,0.3,0,0.3,0.1c0.1,0.2,0,0.3-0.2,0.3L20,24.7c0,0.3-0.1,0.5,0,0.7l0.7,1.8l3.8-1.4c0.5-0.2,0.9,0,1.1,0.5l0.6,1.6
	c0.2,0.5,0,0.9-0.5,1.1L21.9,30.5z M20.9,27.7l0.9,2.3l3.7-1.4c0.3-0.1,0.4-0.3,0.3-0.6l-0.6-1.5c-0.1-0.3-0.3-0.4-0.6-0.3
	L20.9,27.7z M28,21.3c0.2-0.1,0.3,0,0.4,0.1c0,0,0,0.1,0,0.2c0,0.7-0.1,1.3-0.2,1.8c-0.1,0.6-0.2,1.1-0.3,1.7
	c0.6-0.3,1.1-0.7,1.6-1.1l0,0c0.1-0.4,0.1-0.8,0.1-1.2c0-0.1,0.1-0.2,0.2-0.2c0.2-0.1,0.4,0,0.4,0.2c0,0,0,0.1,0,0.2
	c0,0.6-0.2,1.3-0.3,2c-0.2,0.7-0.5,1.5-0.8,2.5c0.7-0.4,1.4-0.9,2.1-1.4c0.2-0.1,0.3,0,0.4,0.2c0,0.2,0,0.3-0.2,0.4
	c-0.8,0.7-1.7,1.3-2.8,1.8c-0.2,0-0.3,0-0.4-0.2c0-0.1,0-0.3,0.2-0.4l0,0c0.5-1,0.8-1.9,0.9-2.6c0-0.1,0.1-0.2,0.1-0.3
	c-0.5,0.4-1.1,0.8-1.8,1.1c-0.2,0-0.3,0-0.4-0.2c0-0.1,0-0.2,0.1-0.2c0-0.1,0-0.2,0-0.2c0.3-1.3,0.5-2.5,0.6-3.6
	C27.9,21.4,27.9,21.3,28,21.3z M32.2,27.8c0.2-0.1,0.3,0,0.4,0.2c0,0.2,0,0.3-0.2,0.4c-0.9,0.8-1.9,1.5-3.1,2.1
	c-0.2,0-0.3,0-0.4-0.2c0-0.1,0-0.3,0.2-0.4C30.3,29.4,31.3,28.7,32.2,27.8z M33.1,26.3l0.5,1.2c0.2,0.5,0.4,0.8,0.6,0.9
	c0.2,0.1,0.8,0,1.7-0.3c0.7-0.3,1.1-0.5,1.4-0.6c0.2-0.1,0.3-0.2,0.4-0.4c0.1-0.2,0.1-0.4,0-0.7c-0.1-0.3-0.2-0.6-0.3-0.8
	c-0.1-0.2,0-0.4,0.1-0.4c0.2-0.1,0.3,0,0.4,0.2c0.3,0.8,0.4,1.3,0.4,1.6c0,0.2-0.1,0.4-0.3,0.6c-0.1,0.2-0.3,0.3-0.5,0.4
	c-0.4,0.2-0.9,0.4-1.5,0.7c-1.1,0.4-1.9,0.6-2.2,0.4S33.2,28.5,33,28l-1.5-4c-0.2-0.5,0-0.8,0.5-1l1.3-0.5c0.3-0.8,0.5-1.4,0.6-1.9
	c0-0.3,0.1-0.5,0-0.5c0-0.1-0.1-0.1-0.2-0.1l-1.4,0.5C32.1,20.6,32,20.7,32,21c-0.1,0.6-0.3,1.4-0.7,2.4c0,0.1-0.1,0.1-0.2,0.2
	c-0.2,0-0.3,0-0.3-0.1s0-0.2,0-0.2c0.4-0.7,0.6-1.5,0.7-2.3c0.1-0.4,0.3-0.7,0.6-0.8l1.6-0.6c0.3-0.1,0.6,0,0.7,0.3
	c0.1,0.1,0.1,0.4,0,0.8c-0.1,0.5-0.2,1-0.4,1.7l1.3-0.5c0.5-0.2,0.8,0,1,0.5l0.8,2c0.2,0.5,0,0.8-0.5,1C36.5,25,33.1,26.3,33.1,26.3
	z M34.5,25.2l-0.9-2.5l-1.2,0.4c-0.3,0.1-0.4,0.3-0.3,0.6l0.8,2.1C32.9,25.8,34.5,25.2,34.5,25.2z M34.1,22.6L35,25l1.2-0.4
	c0.3-0.1,0.4-0.3,0.3-0.6l-0.6-1.6c-0.1-0.3-0.3-0.4-0.6-0.3C35.2,22.1,34.1,22.6,34.1,22.6z"/>
</svg>
