<?xml version="1.0" standalone="no"?><!DOCTYPE svg PUBLIC "-//W3C//DTD SVG 1.1//EN" "http://www.w3.org/Graphics/SVG/1.1/DTD/svg11.dtd"><svg class="icon" width="54px" height="54.00px" viewBox="0 0 1024 1024" version="1.1" xmlns="http://www.w3.org/2000/svg"><path fill="#999999" d="M361.54368 286.63808l16.01536-12.98432 20.98176 1.55136-8.02816-18.49856 8.02816-18.50368-20.98176 1.55136-16.01536-12.98944-4.93568 19.46112-17.93536 10.47552 17.93536 10.47552 4.93568 19.46112zM653.32736 264.56576l14.83776 14.91456 6.05184-19.23584 18.19136-8.71936-16.8704-12.57984-3.60448-20.30592-16.47104 11.47392-20.41344-3.84 6.68672 19.66592-9.02144 17.94048 20.61312 0.68608zM489.79456 241.14688l19.84-5.61664 18.67264 9.7024-0.08192-20.1728 14.67904-13.83424-19.8912-6.85568-9.6-18.2528-12.20608 15.93344-20.61312 2.56 12.34944 16.69632-3.1488 19.84zM273.7664 361.63072l14.12608 14.26432 7.22432-19.30752 18.87232-9.30816-16.29696-11.86816-2.47296-20.02944-17.29536 11.9808-20.38784-3.072 5.60128 19.27168-10.1376 18.12992 20.76672-0.06144zM666.69568 755.11808l-15.88736 12.9536-20.8128-1.54624 7.96672 18.4576-7.96672 18.46272 20.8128-1.54624 15.88736 12.9536 4.89472-19.41504 17.78688-10.45504-17.78688-10.4448-4.89472-19.42016zM539.63776 790.54848l-19.68128 5.60128-18.51904-9.6768 0.08192 20.1216-14.56128 13.80864 19.72736 6.83008 9.5232 18.20672 12.11392-15.90272 20.44416-2.53952-12.24704-16.67072 3.11808-19.77856zM386.18112 767.79008l-14.68928-14.85824-6.05184 19.18976-18.06336 8.71936 16.72192 12.51328 3.52256 20.24448L384 802.14016l20.2496 3.79392-6.59456-19.59424 8.97536-17.89952-20.44928-0.65024z"  /><path fill="#999999" d="M512 78.86848c-239.26784 0-433.93024 194.65728-433.93024 433.92512 0 239.26784 194.65728 433.92512 433.93024 433.92512s433.92512-194.65728 433.92512-433.92512c0-239.26784-194.65728-433.92512-433.92512-433.92512z m0 839.04512c-223.3856 0-405.12-181.7344-405.12-405.11488S288.6144 107.68384 512 107.68384c223.38048 0 405.11488 181.7344 405.11488 405.11488 0.00512 223.37536-181.7344 405.11488-405.11488 405.11488z"  /><path fill="#999999" d="M512 148.92544c-200.63744 0-363.86816 163.23072-363.86816 363.86816S311.36256 876.66688 512 876.66688c200.64256 0 363.86816-163.23072 363.86816-363.87328 0.00512-200.63744-163.2256-363.86816-363.86816-363.86816z m0 711.28064c-191.55968 0-347.41248-155.84768-347.41248-347.41248 0-191.55968 155.84768-347.40736 347.41248-347.40736 191.55968 0 347.41248 155.84768 347.41248 347.40736a345.38496 345.38496 0 0 1-58.49088 192.70144l-6.83008-18.56 8.74496-18.74432-20.54144 1.51552-14.976-13.2096-5.79072 19.72736-18.01216 10.58304 16.96768 10.67008 3.84512 19.75296 16.27136-13.1328 20.18304 1.60768c-62.3872 93.09184-168.54528 154.50112-288.78336 154.50112z"  /><path fill="#999999" d="M655.04256 338.26304A226.0224 226.0224 0 0 0 512 287.13472c-108.19072 0-201.40544 77.02528-221.6448 183.14752l14.15168 2.69824c18.944-99.34336 106.20928-171.4432 207.49824-171.4432 48.73728 0 96.29184 16.9984 133.90848 47.86176l9.12896-11.136zM512 724.04992a211.64032 211.64032 0 0 1-133.9136-47.86176l-9.13408 11.136A226.048 226.048 0 0 0 512 738.4576c108.19072 0 201.40544-77.02528 221.6448-183.14752l-14.15168-2.69824c-18.944 99.33824-106.20416 171.43808-207.49312 171.43808zM363.53536 506.88512c2.98496-0.98816 5.2736 0.2048 6.86592 3.56864 0.84992 3.04128-0.14336 5.248-2.97472 6.63552l-21.81632 8.30464 16.76288 44.032a142.37184 142.37184 0 0 0 12.71296-23.17824c0.57344-1.28512 1.37216-2.2016 2.39104-2.73408 2.85696-0.94208 4.9664-0.21504 6.32832 2.17088 0.77824 2.45248 0.768 4.82304-0.04096 7.12192-4.25984 9.26208-9.61536 18.47808-16.0512 27.648a9.74848 9.74848 0 0 1-0.77312 0.97792l23.3216 61.24032c3.75808 9.87648 1.4336 16.41472-6.96832 19.61472-5.20704 1.98144-12.45184 3.21024-21.7344 3.69152-2.048-1.36192-3.328-2.31936-3.85024-2.88256-1.39264-4.05504-0.67072-6.77376 2.16064-8.15616 0.39936-0.1536 0.896-0.26624 1.47968-0.3328 5.92896 0.3328 10.95168-0.12288 15.05792-1.37728 3.59936-1.37728 4.71552-3.8656 3.34336-7.47008l-20.57728-54.03648a207.08352 207.08352 0 0 1-15.72864 17.67424 68.2496 68.2496 0 0 1-4.29568 2.55488c-2.688 0.5632-4.5312-0.26112-5.5296-2.47808-0.98304-2.98496-0.3328-5.29408 1.95072-6.92736 8.15616-9.06752 14.53056-16.60928 19.10272-22.6304l-19.2768-50.6368-21.01248 8.00256c-3.1744 0.90112-5.38112-0.09216-6.63552-2.97984-1.18272-3.51744-0.27648-5.92896 2.74432-7.22944l21.01248-8.00256-12.4928-32.8192c-1.03424-3.11808-0.10752-5.30944 2.77504-6.5536 3.51744-1.18784 5.99552-0.29696 7.42912 2.66752l12.49792 32.8192 21.82144-8.29952z m52.352 71.26528l16.68608 43.83232c1.57696 4.13696 4.4288 5.42208 8.56576 3.84512l87.45984-33.30048c3.2-1.21856 5.41184-0.2304 6.6304 2.97472 1.17248 3.06688 0.1536 5.21216-3.0464 6.4256l-90.65984 34.52416c-8.27904 3.1488-13.98784 0.58368-17.13664-7.68512l-56.00768-147.0976c-3.1488-8.2688-0.59392-13.97248 7.68512-17.1264l89.05728-33.90976c3.20512-1.21856 5.39136-0.30208 6.5536 2.76992 1.21856 3.2 0.2304 5.41696-2.9696 6.63552l-85.8624 32.6912c-4.13696 1.57696-5.41696 4.4288-3.84 8.56064l13.1072 34.42688 71.84896-27.35616c10.40384-3.96288 17.59232-0.7424 21.5552 9.66656l11.88352 31.22176c3.96288 10.40384 0.7424 17.59232-9.66656 21.5552l-71.84384 27.34592z m-20.1984-53.03296l16.60928 43.62752 69.44256-26.43968c5.20704-1.98144 6.81472-5.5808 4.83328-10.7776l-10.67008-28.02176c-1.98144-5.20192-5.57568-6.8096-10.77248-4.82816l-69.44256 26.43968zM531.74784 403.42016c3.43552-1.00352 5.888-0.18432 7.36256 2.46784 0.16896 0.8448 0.31232 2.01728 0.41472 3.5072-0.18432 12.7488-1.2032 23.91552-3.06688 33.46944a322.62144 322.62144 0 0 1-5.92896 31.36512 188.17536 188.17536 0 0 0 30.8992-21.16096c0.39936-0.14848 0.6912-0.18432 0.87552-0.10752 1.32608-8.1408 2.21696-16.04096 2.6624-23.70048a5.3248 5.3248 0 0 1 3.09248-3.92704c3.92192-1.33632 6.69696-0.256 8.34048 3.24608 0.16896 0.84992 0.11776 2.32448-0.1536 4.40832-0.94208 11.97056-3.0464 24.30464-6.30272 37.00736-3.2256 13.59872-8.53504 29.14304-15.92832 46.62272a224.95744 224.95744 0 0 0 39.03488-27.4688c3.38432-1.13152 5.9648 0.02048 7.74144 3.47136 0.6656 2.95424-0.61952 5.20192-3.85024 6.73792-14.6944 12.7744-32.37376 24.32-53.03808 34.63168-3.2256 0.768-5.7344-0.41472-7.53664-3.54304-0.74752-2.76992 0.46592-4.99712 3.65056-6.66624l0.79872-0.3072c8.6272-19.47648 14.34624-35.93728 17.17248-49.38752 0.61952-2.37056 1.09568-4.53632 1.41824-6.49728-10.10688 7.97184-21.77024 15.24224-35.00544 21.80608-3.3536 0.82432-5.90848-0.27136-7.65952-3.26656a5.25312 5.25312 0 0 1 1.02912-4.51584c-0.53248-1.78688-0.43008-3.1232 0.3072-4.01408 6.49216-25.07776 9.99936-47.95904 10.53696-68.62848 0.22016-2.98496 1.26464-4.8384 3.13344-5.55008z m79.73888 124.544c3.2512-1.08544 5.73952 0.03072 7.45984 3.33824 0.6656 2.95936-0.54784 5.18144-3.65056 6.67136-16.21504 15.18592-35.82464 28.68736-58.82368 40.49408-3.3536 0.81408-5.93408-0.3328-7.73632-3.47136-0.6144-2.82112 0.6656-5.06368 3.85024-6.7328a234.69568 234.69568 0 0 0 58.90048-40.29952z m15.94368-28.52352l8.91392 23.41376c3.456 9.07264 7.30112 14.55616 11.54048 16.45568 4.12672 2.4064 14.99136 0.25088 32.59904-6.45632 12.67712-4.82304 21.504-8.72448 26.48576-11.68896 3.79904-2.05312 6.49728-4.61312 8.08448-7.65952 1.5872-3.05152 1.69472-7.36768 0.3328-12.95872a120.32 120.32 0 0 0-4.86912-15.7952c-1.52064-3.99872-0.77312-6.65088 2.24256-7.95648 3.52256-1.18272 6.17472 0.17408 7.96672 4.0704 5.01248 14.75072 7.30112 24.576 6.87104 29.47072-0.1792 4.34176-1.77152 8.38656-4.77696 12.12928-2.49344 3.08224-5.84192 5.7344-10.04032 7.94624-7.19872 3.96288-16.6656 8.18176-28.40576 12.65152-21.74976 8.27904-35.79904 10.50112-42.14784 6.656-6.20544-3.44064-11.36128-10.56768-15.47264-21.38112l-29.184-76.6464c-3.55328-9.33888-0.60416-15.8208 8.87296-19.42528l24.41728-9.29792c5.97504-14.7968 9.64096-27.03872 10.99264-36.72064 0.75264-5.63712 0.96256-8.91904 0.59904-9.85088-0.55296-1.46944-1.90464-1.79712-4.03968-0.98304l-26.61376 10.13248c-3.87584 1.47456-6.02624 4.43904-6.4768 8.87808-0.9728 12.288-5.33504 27.32032-13.0816 45.0816a9.0112 9.0112 0 0 1-3.39456 3.12832c-3.05664 0.39936-5.09952-0.35328-6.12352-2.2528-0.71168-1.86368-0.75264-3.3792-0.12288-4.53632 6.81984-12.9792 11.12064-27.75552 12.90752-44.32384 1.13664-7.45472 4.89984-12.40576 11.30496-14.84288l31.22176-11.88864c6.272-2.38592 10.70592-0.1792 13.29664 6.62528 1.01376 2.66752 1.0752 7.83872 0.17408 15.50848-1.37216 9.23648-4.11648 19.67616-8.23808 31.31904l24.82176-9.4464c9.472-3.6096 15.98976-0.7424 19.54304 8.6016l14.32576 37.632c3.5584 9.33888 0.59904 15.81056-8.87296 19.42016l-65.65376 24.99072z m26.24-20.76672l-17.82784-46.83264-22.016 8.38144c-5.20704 1.98144-6.81984 5.5808-4.83328 10.78272l14.85824 39.02464 29.81888-11.35616z m-7.82336-50.64192l17.82784 46.83264 22.016-8.38656c5.20704-1.98144 6.81472-5.57056 4.83328-10.77248l-11.88864-31.22176c-1.98144-5.20704-5.57568-6.81984-10.77248-4.8384l-22.016 8.38656z"  /></svg>