<?xml version="1.0" standalone="no"?><!DOCTYPE svg PUBLIC "-//W3C//DTD SVG 1.1//EN" "http://www.w3.org/Graphics/SVG/1.1/DTD/svg11.dtd"><svg class="icon" width="54px" height="14.73px" viewBox="0 0 3755 1024" version="1.1" xmlns="http://www.w3.org/2000/svg"><path fill="#999999" d="M323.606756 372.007822c-48.059733 73.181867-123.448889 158.378667-227.214222 255.613156-24.029867-13.1072-41.506133-30.606222-51.336533-53.543822 72.0896-91.7504 146.386489-175.877689 225.029689-251.244089C290.838756 335.963022 308.315022 352.324267 323.606756 372.007822zM456.886044 492.157156c6.5536 80.850489 12.014933 161.678222 18.568533 244.690489 90.658133 0 183.523556 2.207289 279.643022 4.369067 2.184533 8.738133 4.369067 18.568533 4.369067 29.4912 0 13.1072-1.092267 26.2144-2.184533 38.252089-64.466489 3.2768-145.294222 4.346311-243.598222 4.346311-41.506133 0-79.735467-2.184533-114.710756-6.5536-9.8304-91.7504-14.199467-196.630756-14.199467-312.411022 13.1072-4.369067 25.122133-7.645867 34.952533-7.645867C435.040711 486.695822 447.055644 488.880356 456.886044 492.157156zM690.653867 381.838222c-13.1072 10.922667-31.675733 21.845333-57.890133 31.675733-25.122133-31.675733-46.967467-73.181867-66.628267-125.633422 17.476267-14.199467 37.137067-25.122133 60.074667-32.768C656.770844 302.08 677.546667 344.701156 690.653867 381.838222zM962.628267 480.142222c-13.1072 10.922667-31.675733 21.845333-57.890133 31.675733-28.398933-29.4912-52.4288-67.720533-74.274133-115.780267 16.384-13.1072 36.0448-24.029867 60.074667-31.675733C923.306667 408.052622 947.359289 446.281956 962.628267 480.142222zM1142.806756 388.391822c-4.369067 74.274133-14.199467 147.456-27.306667 221.752889-6.5536 3.299556-18.568533 4.369067-37.137067 4.369067-15.291733 0-27.306667-2.184533-36.0448-6.5536 4.369067-78.665956 15.291733-154.032356 30.583467-223.937422 10.922667-1.092267 24.029867-2.184533 38.229333-2.184533C1126.422756 384.022756 1136.253156 386.207289 1142.806756 388.391822zM1270.624711 285.696c3.2768 45.8752 6.5536 91.773156 8.738133 137.648356 34.952533 4.369067 67.743289 9.8304 100.511289 15.291733 0 21.845333-4.369067 43.690667-12.014933 65.536-28.398933 0-56.797867-2.184533-85.1968-6.5536 2.184533 72.112356 3.2768 145.294222 3.2768 221.752889-8.738133 3.2768-20.753067 4.369067-36.0448 4.369067-19.6608 0-31.675733 0-36.0448-2.207289-8.738133-155.101867-13.1072-300.396089-13.1072-433.675378 4.369067-2.184533 16.384-4.369067 36.0448-6.5536C1252.033422 281.326933 1262.956089 283.534222 1270.624711 285.696zM1590.6816 168.823467c-1.092267-16.384-1.092267-32.768-1.092267-50.244267 13.1072-1.092267 26.2144-2.184533 41.506133-4.369067 15.291733 0 27.306667 1.092267 38.229333 2.184533 0 19.6608 1.092267 38.229333 2.184533 55.7056 52.4288 3.2768 108.1344 6.5536 164.955022 10.922667 0 21.845333-2.184533 43.690667-6.5536 65.536-52.4288 0-104.8576-1.092267-156.216889-3.2768 0 19.6608 1.092267 38.229333 1.092267 56.797867 41.506133 3.2768 85.219556 6.5536 129.979733 9.8304 0 19.6608-2.184533 40.413867-6.5536 62.2592-41.506133 0-83.012267 0-122.333867-2.184533 0 18.568533 1.092267 36.0448 1.092267 52.4288 69.905067 3.2768 143.109689 7.645867 220.637867 12.014933 0 20.753067-2.184533 42.621156-5.461333 64.466489-166.024533 0-328.795022-5.461333-489.358222-18.568533l0-33.860267c0-8.738133 0-18.568533 2.184533-29.4912 61.166933 0 127.817956 1.092267 197.723022 3.2768-2.184533-18.568533-4.369067-37.137067-4.369067-54.613333-45.8752-2.184533-91.7504-6.5536-136.533333-12.014933L1461.794133 321.763556c0-8.738133 0-17.476267 2.184533-27.306667 41.506133 0 85.1968 1.092267 131.072 3.2768-2.184533-18.568533-3.2768-37.137067-3.2768-55.7056-63.374222-3.2768-124.541156-7.645867-185.708089-14.199467L1406.065778 193.9456c0-8.738133 0-17.476267 2.184533-28.398933C1463.955911 165.546667 1525.122844 166.638933 1590.6816 168.823467zM1525.122844 568.615822c-3.2768 30.606222-6.5536 60.097422-9.8304 88.496356 36.0448 1.092267 75.3664 3.2768 117.9648 5.461333 0 21.845333-3.2768 42.5984-9.8304 60.074667-48.059733 0-86.289067-1.092267-116.895289-4.346311-2.184533 10.899911-3.2768 21.845333-4.369067 30.583467 39.3216 2.184533 76.458667 5.461333 113.595733 7.645867-2.184533 10.922667-3.2768 19.6608-4.369067 28.398933-2.184533 14.199467-4.369067 25.122133-6.5536 31.698489-25.122133 0-50.244267-1.092267-75.3664-3.299556-13.1072 0-25.122133-1.092267-37.137067-3.2768-6.5536 37.137067-13.1072 72.0896-19.6608 107.042133-21.845333-3.2768-43.690667-5.461333-64.443733-7.645867 13.1072-120.149333 30.583467-235.952356 52.4288-347.386311C1483.616711 564.269511 1505.462044 566.454044 1525.122844 568.615822zM1808.042667 568.615822c4.369067 116.895289 6.5536 219.568356 6.5536 308.041956 0 26.2144-3.2768 46.967467-9.8304 62.2592-17.476267 1.092267-33.860267 2.207289-50.244267 2.207289-26.2144 0-49.152-2.207289-68.8128-4.369067-4.369067-8.738133-6.5536-18.568533-6.5536-28.398933s0-18.568533 2.184533-25.122133c19.6608-2.184533 38.229333-2.184533 56.797867-2.184533 1.092267-83.012267 2.184533-166.047289 2.184533-249.059556-61.166933-6.5536-122.333867-16.384-185.708089-29.4912l0-30.583467c0-8.738133 1.092267-18.568533 4.369067-30.606222C1639.8336 546.770489 1722.845867 555.508622 1808.042667 568.615822zM2752.853333 243.0976l0 31.675733c0 17.476267-2.207289 30.583467-4.369067 41.506133-85.1968 0-170.3936-1.092267-255.613156-3.2768 0 32.768 1.115022 65.536 2.207289 96.142222 64.443733 1.092267 112.503467 2.184533 144.1792 3.2768 1.115022 8.738133 2.207289 18.568533 2.207289 29.4912l0 30.583467c-13.1072 6.5536-62.2592 9.8304-145.294222 9.8304l0 80.850489c50.244267-1.115022 101.5808-2.207289 154.032356-2.207289 1.092267 8.760889 2.184533 19.6608 2.184533 30.606222l0 34.952533c-129.979733 10.899911-257.797689 15.291733-384.500622 15.291733-4.346311-21.845333-5.461333-44.805689-5.461333-68.8128 50.267022-3.2768 100.511289-5.461333 152.940089-7.645867-2.184533-27.306667-4.346311-54.613333-4.346311-81.942756l-10.922667 0c-89.588622 0-152.940089-2.184533-191.146667-8.738133-3.299556-9.8304-4.369067-20.753067-4.369067-32.768s0-22.9376 2.184533-31.675733c52.451556 0 116.895289-1.092267 195.538489-1.092267l5.461333 0c-1.092267-32.768-2.184533-65.536-2.184533-98.326756-98.304-1.092267-197.700267-3.2768-297.142044-7.645867-3.2768-8.738133-4.346311-21.845333-4.346311-38.229333 0-12.014933 3.2768-24.029867 9.8304-36.0448C2324.639289 233.2672 2537.654044 237.636267 2752.853333 243.0976zM2491.778844 677.865244c-8.738133 17.476267-16.384 34.952533-24.029867 51.336533 80.827733-2.184533 161.655467-5.438578 243.598222-7.645867 2.184533 10.922667 4.346311 21.845333 4.346311 33.860267l0 36.0448c-96.119467 6.5536-191.146667 10.922667-287.288889 15.291733-4.346311 8.760889-8.738133 17.499022-13.1072 26.2144-14.199467 26.2144-26.191644 48.059733-34.952533 68.8128-7.645867 13.1072-15.291733 25.122133-21.845333 38.229333-5.461333 13.1072-15.291733 28.421689-29.4912 46.967467-25.122133-8.738133-46.967467-19.6608-64.443733-34.952533 24.029867-49.152 46.944711-95.0272 70.997333-140.9024-64.443733 3.299556-127.7952 5.461333-191.146667 6.5536-4.369067-24.029867-6.5536-49.152-6.5536-73.181867 79.735467-4.369067 159.470933-8.760889 239.229156-12.014933 14.199467-26.2144 28.398933-52.451556 43.690667-78.6432C2449.180444 657.112178 2472.095289 664.758044 2491.778844 677.865244zM2312.647111 187.392c-22.960356 13.1072-45.897956 20.753067-67.743289 22.9376-24.029867-30.583467-37.137067-68.8128-41.506133-114.710756 17.499022-7.645867 39.344356-13.1072 64.443733-17.476267C2288.594489 102.1952 2303.886222 139.332267 2312.647111 187.392zM2666.541511 105.472c-6.5536 41.506133-19.6608 73.181867-37.137067 97.211733-17.499022 0-40.413867-6.5536-66.651022-19.6608 5.461333-34.952533 17.499022-67.720533 34.952533-100.511289C2619.5968 87.995733 2642.5344 95.6416 2666.541511 105.472zM2723.339378 916.002133c-9.8304 22.9376-24.029867 41.506133-41.506133 56.797867-39.3216-19.6608-74.274133-43.690667-104.8576-70.997333 10.922667-21.845333 22.960356-40.413867 36.067556-56.797867C2651.249778 862.458311 2688.386844 885.418667 2723.339378 916.002133zM3507.586844 96.733867c-7.645867 5.461333-15.291733 9.8304-21.845333 14.199467 78.6432 61.166933 158.401422 124.541156 239.229156 190.077156-8.738133 15.291733-24.029867 33.860267-48.059733 53.521067-89.588622-57.890133-175.877689-123.426133-258.889956-197.723022-135.441067 91.773156-269.789867 181.339022-404.184178 269.812622-24.029867-17.476267-39.3216-36.0448-44.782933-55.7056 144.201956-115.780267 308.041956-225.029689 491.565511-327.702756C3481.372444 58.481778 3496.686933 75.958044 3507.586844 96.733867zM3199.544889 889.787733c15.291733 1.092267 30.583467 2.207289 43.690667 2.207289 21.845333-2.207289 45.897956-4.369067 72.112356-6.5536 1.092267 14.199467 2.184533 25.122133 2.184533 32.745244 0 10.922667-1.092267 20.753067-3.299556 31.698489-21.845333 5.461333-56.797867 8.738133-104.8576 8.738133-36.0448 0-62.236444-3.2768-79.735467-8.738133-4.369067-30.583467-8.738133-108.157156-10.922667-234.860089 0-137.6256 2.207289-210.830222 6.5536-219.568356 13.1072-2.184533 22.960356-4.369067 30.606222-4.369067 13.1072 0 24.029867 2.184533 32.745244 4.369067 0 9.8304 1.115022 18.568533 1.115022 27.306667 72.0896 2.184533 155.101867 8.738133 247.944533 19.6608 0 20.775822-2.184533 42.621156-6.5536 64.466489-80.827733 0-160.585956-5.461333-238.136889-16.406756C3197.360356 713.910044 3199.544889 813.306311 3199.544889 889.787733zM3492.295111 374.192356c75.3664 5.461333 146.386489 12.014933 211.899733 19.6608-3.2768 113.618489-9.8304 218.498844-19.6608 314.595556-56.797867 13.1072-127.7952 18.568533-212.992 18.568533-40.413867 0-73.204622-2.184533-99.396267-6.5536-2.207289-2.184533-5.461333-10.899911-7.645867-26.2144l0-27.306667c82.989511-4.346311 164.932267-8.738133 247.944533-14.199467 4.369067-60.074667 8.738133-126.702933 15.291733-198.815289-50.244267-4.369067-186.7776-13.1072-409.622756-24.029867-3.299556-8.738133-4.369067-20.753067-4.369067-33.860267 0-9.8304 2.184533-20.753067 6.5536-31.675733 68.8128 1.092267 134.3488 3.2768 197.700267 5.461333-4.346311-26.2144-7.645867-53.521067-7.645867-79.735467 26.2144-2.184533 49.152-4.369067 70.997333-6.5536C3486.833778 314.094933 3490.133333 344.701156 3492.295111 374.192356zM3679.095467 798.014578c-15.314489 28.398933-32.768 55.7056-51.359289 81.942756 28.398933 14.199467 54.613333 29.4912 80.850489 45.8752-6.5536 17.499022-15.291733 36.067556-28.398933 55.7056-74.296889-20.753067-156.216889-56.797867-246.897778-108.1344 5.461333-21.845333 14.199467-41.506133 25.122133-61.166933 32.768 10.922667 65.536 21.845333 97.211733 34.952533 19.6608-28.398933 41.506133-56.797867 63.351467-84.104533C3638.6816 770.707911 3659.434667 782.7456 3679.095467 798.014578z" /></svg>